<?xml version="1.0" encoding="UTF-8" standalone="no"?>
<!-- Created with Inkscape (http://www.inkscape.org/) -->

<svg
   width="167.52202mm"
   height="167.52199mm"
   viewBox="0 0 167.52202 167.52199"
   version="1.1"
   id="svg5"
   xml:space="preserve"
   inkscape:export-filename="SS_logo.svg"
   inkscape:export-xdpi="96"
   inkscape:export-ydpi="96"
   xmlns:inkscape="http://www.inkscape.org/namespaces/inkscape"
   xmlns:sodipodi="http://sodipodi.sourceforge.net/DTD/sodipodi-0.dtd"
   xmlns="http://www.w3.org/2000/svg"
   xmlns:svg="http://www.w3.org/2000/svg"><sodipodi:namedview
     id="namedview7"
     pagecolor="#ffffff"
     bordercolor="#999999"
     borderopacity="1"
     inkscape:showpageshadow="0"
     inkscape:pageopacity="0"
     inkscape:pagecheckerboard="0"
     inkscape:deskcolor="#d1d1d1"
     inkscape:document-units="mm"
     showgrid="false"
     showguides="true" /><defs
     id="defs2" /><g
     inkscape:label="Lager 1"
     inkscape:groupmode="layer"
     id="layer1"
     transform="translate(-21.238995,-64.738989)"><g
       id="g2026"
       transform="translate(377.54514,-65.99704)"><circle
         style="opacity:1;fill:none;stroke:#000000;stroke-width:7.19;stroke-linecap:round;stroke-linejoin:bevel;stroke-miterlimit:4.5;stroke-dasharray:none;paint-order:fill markers stroke"
         id="path396"
         cx="-272.54514"
         cy="214.49704"
         r="80.166008" /><path
         id="path2017"
         style="fill:#030303;stroke:none;stroke-width:0.265249"
         d="m -299.93804,165.988 c -11.18132,-0.0244 -21.83724,9.47906 -20.95531,22.28391 1.57903,22.93236 36.58277,25.19802 36.31407,48.54019 -0.14085,12.23859 -13.38525,21.62942 -24.93233,17.58755 -5.92142,-2.07291 -9.13854,-6.6039 -11.67061,-12.01683 l -6.63163,4.24367 c 0.73845,2.51057 2.62961,4.85086 4.21421,6.89673 13.18128,17.01757 42.42056,9.87039 46.11708,-11.40602 2.72782,-15.69981 -6.94044,-25.79654 -18.7663,-34.51314 -6.31584,-4.65512 -15.2917,-9.89202 -16.89354,-18.27123 -0.53713,-2.81031 -0.43618,-6.1803 0.9524,-8.75348 4.77766,-8.85268 18.19073,-10.0305 22.83736,-0.2651 l 6.63112,-4.50928 c -1.13447,-1.96311 -2.79497,-3.57905 -4.50928,-5.03845 -3.87636,-3.30036 -8.33194,-4.76897 -12.70724,-4.77852 z m 59.81651,0.01 c -6.06955,0.0402 -12.23234,2.53554 -16.29152,7.1546 -3.99597,4.54715 -4.80481,10.35448 -4.54752,16.18041 0.30133,6.81928 5.16895,12.48943 10.06915,16.7106 10.68476,9.20413 26.72902,15.94671 25.98395,32.3603 -0.87427,19.2584 -31.74504,23.32077 -36.32854,3.97909 l -6.89673,4.24367 c 0.82519,2.25408 2.43539,4.46445 3.8871,6.36602 13.22292,17.32022 43.81832,10.90738 46.69999,-11.67113 1.9265,-15.09266 -6.72747,-24.71057 -18.22679,-33.1866 -6.3994,-4.71666 -15.48108,-9.93869 -17.44338,-18.27175 -1.91324,-8.12591 3.86883,-16.80401 12.66899,-16.58969 4.75778,0.11592 8.7086,3.16404 11.14041,7.04091 l 6.36601,-4.50928 c -3.44307,-6.74482 -10.20231,-9.85276 -17.08112,-9.80715 z" /></g></g></svg>
